<svg width="264" height="193" viewBox="0 0 264 193" fill="none" xmlns="http://www.w3.org/2000/svg">
<path d="M245.708 144.267C240.96 160.889 228.552 174.831 212.326 180.793C196.1 186.755 178.225 186.29 161.079 184.09C137.957 181.124 115.224 175.139 93.6402 166.333C84.1755 162.714 75.1804 158.712 66.3051 154.458C56.9114 149.954 47.5888 145.128 39.3838 138.708C31.1788 132.288 24.0844 124.148 20.255 114.46C14.7841 100.619 16.682 84.1021 24.8801 72.3325C28.9812 65.3761 35.6227 60.2981 42.4927 56.0535C49.3627 51.8088 56.655 48.1913 63.0192 43.2206C72.3487 35.9353 79.3567 25.9968 88.7713 18.8216C101.475 9.14222 118.344 5.13865 133.079 7.81002C145.68 10.7448 157.735 16.3843 167.566 24.7956C187.082 41.4941 191.217 60.0097 215.753 84.5467C224.096 92.8897 232.837 100.957 239.3 110.828C241.488 114.17 243.478 117.662 244.899 121.395C248.078 129.748 247.052 139.558 245.708 144.267Z" fill="#E4F3FC"/>
<g opacity="0.9">
<path d="M148.143 12.8912L127.646 101.48C127.646 101.48 123.048 6.96736 122.957 7.00638C131.13 6.87817 139.325 8.68556 146.686 12.239C147.157 12.4676 148.054 12.7323 148.143 12.8912Z" fill="url(#paint0_linear_710_6705)"/>
<path d="M185.938 46.2156L128.758 100.651C128.758 100.651 170.763 27.7752 170.881 27.9619C176.584 33.5039 181.659 39.6897 185.938 46.2156Z" fill="url(#paint1_linear_710_6705)"/>
<path d="M218.053 86.934L128.758 101.477C128.758 101.477 200.326 66.9705 200.248 67.1169C205.703 74.1457 211.665 80.7803 218.053 86.934Z" fill="url(#paint2_linear_710_6705)"/>
<path d="M243.023 117.407L130.438 102.876C130.438 102.876 242.825 151.771 242.87 151.633C245.267 146.201 246.773 140.339 246.903 134.402C247.034 128.466 245.752 122.456 243.023 117.407Z" fill="url(#paint3_linear_710_6705)"/>
<path d="M60.6813 44.8247L126.527 101.194C126.527 101.194 38.3836 58.5996 38.2805 58.5759C43.024 55.7192 47.7675 52.8611 52.5097 50.003C55.2772 48.3364 58.0489 46.6655 60.6813 44.8247Z" fill="url(#paint4_linear_710_6705)"/>
<path d="M18.5055 109.476L126.809 102.588C126.809 102.588 20.4773 80.1402 20.547 80.2893C16.6466 89.4322 15.9581 99.91 18.5055 109.476Z" fill="url(#paint5_linear_710_6705)"/>
<path d="M59.3147 151.051L126.522 103.707C126.522 103.707 35.4968 135.551 35.519 135.546C42.743 141.75 50.7989 146.985 59.3147 151.051Z" fill="url(#paint6_linear_710_6705)"/>
<path d="M178.517 185.563L131.552 104.821C131.552 104.821 215.292 179.504 215.254 179.442C203.665 184.123 191.041 186.222 178.517 185.563Z" fill="url(#paint7_linear_710_6705)"/>
<path d="M146.783 181.852L128.487 103.707C128.487 103.707 120.161 175.57 120.341 175.595C129.074 178.203 137.964 180.291 146.783 181.852Z" fill="white" fill-opacity="0.57"/>
<path d="M97.7101 13.1685L127.362 100.931C127.362 100.931 77.9835 28.6003 78.0002 28.7508C81.2081 25.299 83.9729 22.7559 87.1891 20.0093C90.4053 17.2626 93.9337 14.8184 97.7101 13.1685Z" fill="url(#paint8_linear_710_6705)"/>
</g>
<path d="M245.441 81.5555L190.491 92.0949L203.35 101.508L245.441 81.5555Z" fill="#EBC463"/>
<path d="M207.918 104.495L245.635 81.6273L225.749 115.101L207.918 104.495Z" fill="#EBC463"/>
<path d="M203.357 101.512L202.071 119.699L207.931 104.495L245.447 81.7227L245.544 81.6244L203.357 101.512Z" fill="#DBA725"/>
<path d="M215.951 109.265L202.094 119.875L207.913 104.53L215.951 109.265Z" fill="#BC8909"/>
<path d="M185.186 104.08V171.512C185.188 172.186 185.057 172.854 184.8 173.477C184.543 174.1 184.166 174.666 183.69 175.142C183.214 175.618 182.649 175.996 182.026 176.253C181.404 176.51 180.737 176.641 180.064 176.639H80.7774C79.419 176.639 78.1162 176.099 77.1557 175.137C76.1951 174.176 75.6555 172.872 75.6555 171.512V104.08L90.6273 115.508V154.556H169.426V115.911L185.186 104.08Z" fill="#48A8EE"/>
<path d="M185.192 104.081L134.493 142.237C133.213 143.208 131.651 143.733 130.045 143.733C128.439 143.733 126.877 143.208 125.597 142.237L75.6621 104.081L126.645 65.5381C127.736 64.7189 129.063 64.2762 130.427 64.2762C131.791 64.2762 133.118 64.7189 134.21 65.5381L185.192 104.081Z" fill="#0E336F"/>
<path d="M169.42 115.948V154.593H90.6216V115.522L125.561 142.203C126.849 143.177 128.419 143.704 130.033 143.704C131.647 143.704 133.217 143.177 134.505 142.203L169.42 115.948Z" fill="#48A8EE"/>
<path d="M169.42 85.9382V115.908L134.505 142.187C133.217 143.161 131.647 143.688 130.033 143.688C128.419 143.688 126.849 143.161 125.561 142.187L90.6216 115.522V73.13C90.6206 72.5342 90.737 71.9441 90.9644 71.3934C91.1917 70.8427 91.5254 70.3424 91.9464 69.9211C92.3673 69.4998 92.8672 69.1657 93.4174 68.9382C93.9676 68.7107 94.5572 68.5941 95.1525 68.5951H150.974V80.4253C150.974 81.8895 151.555 83.2938 152.589 84.3291C153.624 85.3644 155.027 85.9461 156.489 85.9461L169.42 85.9382Z" fill="white"/>
<path d="M169.424 85.9382H155.24C154.106 85.9382 153.017 85.487 152.215 84.6839C151.412 83.8807 150.962 82.7915 150.962 81.6557V68.5951L169.424 85.9382Z" fill="#9DCAEB"/>
<path d="M185.186 171.505C185.188 172.179 185.057 172.846 184.8 173.469C184.543 174.092 184.166 174.658 183.69 175.135C183.214 175.611 182.649 175.989 182.026 176.246C181.404 176.502 180.737 176.634 180.064 176.632H80.7774C79.419 176.632 78.1162 176.091 77.1557 175.13C76.1951 174.169 75.6555 172.865 75.6555 171.505L119.94 138.27L125.393 142.434C126.735 143.451 128.372 144.001 130.054 144.001C131.737 144.001 133.374 143.451 134.715 142.434L140.594 138.01L185.186 171.505Z" fill="#2662A7"/>
<path d="M114.544 105.314L127.603 118.372L149.45 96.5252" stroke="#48A8EE" stroke-width="7"/>
<defs>
<linearGradient id="paint0_linear_710_6705" x1="135.55" y1="7" x2="135.55" y2="101.48" gradientUnits="userSpaceOnUse">
<stop stop-color="white" stop-opacity="0"/>
<stop offset="1" stop-color="white"/>
</linearGradient>
<linearGradient id="paint1_linear_710_6705" x1="140.463" y1="87.552" x2="200.942" y2="18.9911" gradientUnits="userSpaceOnUse">
<stop stop-color="white"/>
<stop offset="1" stop-color="white" stop-opacity="0"/>
</linearGradient>
<linearGradient id="paint2_linear_710_6705" x1="146.595" y1="96.4606" x2="227.14" y2="69.7052" gradientUnits="userSpaceOnUse">
<stop stop-color="white"/>
<stop offset="1" stop-color="white" stop-opacity="0"/>
</linearGradient>
<linearGradient id="paint3_linear_710_6705" x1="148.554" y1="110.122" x2="256.969" y2="139.665" gradientUnits="userSpaceOnUse">
<stop stop-color="white"/>
<stop offset="1" stop-color="white" stop-opacity="0"/>
</linearGradient>
<linearGradient id="paint4_linear_710_6705" x1="107.018" y1="89.4889" x2="25.3579" y2="41.552" gradientUnits="userSpaceOnUse">
<stop stop-color="white"/>
<stop offset="1" stop-color="white" stop-opacity="0"/>
</linearGradient>
<linearGradient id="paint5_linear_710_6705" x1="110.365" y1="101.473" x2="1.39264" y2="94.9232" gradientUnits="userSpaceOnUse">
<stop stop-color="white"/>
<stop offset="1" stop-color="white" stop-opacity="0"/>
</linearGradient>
<linearGradient id="paint6_linear_710_6705" x1="94.1925" y1="119.593" x2="28.6973" y2="151.087" gradientUnits="userSpaceOnUse">
<stop stop-color="white"/>
<stop offset="1" stop-color="white" stop-opacity="0"/>
</linearGradient>
<linearGradient id="paint7_linear_710_6705" x1="142.422" y1="123.216" x2="209.589" y2="198.187" gradientUnits="userSpaceOnUse">
<stop stop-color="white"/>
<stop offset="1" stop-color="white" stop-opacity="0"/>
</linearGradient>
<linearGradient id="paint8_linear_710_6705" x1="121.788" y1="88.6683" x2="75.8022" y2="13.1398" gradientUnits="userSpaceOnUse">
<stop stop-color="white"/>
<stop offset="1" stop-color="white" stop-opacity="0"/>
</linearGradient>
</defs>
</svg>
